/kaggle/working/opencap-processing/OpenCapData_ab7eb7cf-817d-4035-a30b-ee68773906cb/OpenSimData/Dynamics/Suhasno_3/GRF_resultant_Suhasno_3_Suhasno_3_window_3.mot
version=1
nRows=20
nColumns=19
inDegrees=yes
endheader 
time	ground_force_right_vx	ground_force_right_vy	ground_force_right_vz	ground_force_right_px	ground_force_right_py	ground_force_right_pz	ground_torque_right_x	ground_torque_right_y	ground_torque_right_z	ground_force_left_vx	ground_force_left_vy	ground_force_left_vz	ground_force_left_px	ground_force_left_py	ground_force_left_pz	ground_torque_left_x	ground_torque_left_y	ground_torque_left_z	
          3.00000000	         11.78279639	         19.54534888	        -20.26876698	          2.43825700	          0.00000000	         -0.14774606	          0.00000000	         -0.02444277	          0.00000000	         -0.00000000	         -0.00000000	         -0.00000000	          0.00000000	          0.00000000	          0.00000000	          0.00000000	          0.00000000	          0.00000000	
          3.05000000	         -0.00000433	         -0.00014878	          0.00015163	          0.00000000	          0.00000000	          0.00000000	          0.00000000	         -0.00036596	          0.00000000	         -0.00000000	         -0.00000000	         -0.00000000	          0.00000000	          0.00000000	          0.00000000	          0.00000000	          0.00000000	          0.00000000	
          3.10000000	          0.00000000	         -0.00000000	          0.00000000	          0.00000000	          0.00000000	          0.00000000	          0.00000000	         -0.00000000	          0.00000000	         -0.00000000	         -0.00000000	         -0.00000000	          0.00000000	          0.00000000	          0.00000000	          0.00000000	          0.00000000	          0.00000000	
          3.15000000	         -0.00000000	          0.00000000	         -0.00000000	          2.43738610	          0.00000000	          0.04700295	          0.00000000	          0.00000000	          0.00000000	         -0.00000000	         -0.00000000	         -0.00000000	          0.00000000	          0.00000000	          0.00000000	          0.00000000	          0.00000000	          0.00000000	
          3.20000000	         -0.00000000	          0.00000000	         -0.00000000	          2.46466156	          0.00000000	          0.11287779	          0.00000000	          0.00000000	          0.00000000	         -0.00000000	         -0.00000000	         -0.00000000	          0.00000000	          0.00000000	          0.00000000	          0.00000000	          0.00000000	          0.00000000	
          3.25000000	         -0.00000000	          0.00000000	         -0.00000000	          2.47841083	          0.00000000	          0.20393724	          0.00000000	          0.00000000	          0.00000000	          0.00000000	          0.00000000	         -0.00000000	          2.54990675	          0.00000000	         -0.01375525	          0.00000000	         -0.00000000	          0.00000000	
          3.30000000	          0.00000000	          0.00000000	         -0.00000000	          2.48377544	          0.00000000	          0.23842208	          0.00000000	          0.00000000	          0.00000000	          0.00000000	          0.00000000	         -0.00000000	          2.63886961	          0.00000000	         -0.07822753	          0.00000000	          0.00000000	          0.00000000	
          3.35000000	         -0.00000000	          0.00000000	         -0.00000000	          2.53267468	          0.00000000	          0.22246402	          0.00000000	         -0.00000000	          0.00000000	         -0.00000000	          0.00000000	          0.00000000	          2.71718022	          0.00000000	         -0.11778689	          0.00000000	          0.00000000	          0.00000000	
          3.40000000	         -0.00000000	          0.00000000	          0.00000000	          2.56960779	          0.00000000	          0.19696521	          0.00000000	          0.00000000	          0.00000000	         -0.00000000	          0.00000000	          0.00000000	          2.75852067	          0.00000000	         -0.14279552	          0.00000000	          0.00000000	          0.00000000	
          3.45000000	         -0.00000000	          0.00000000	          0.00000000	          2.60998863	          0.00000000	          0.17223431	          0.00000000	          0.00000000	          0.00000000	         -0.00000000	          0.00000000	          0.00000000	          2.77810741	          0.00000000	         -0.15270906	          0.00000000	          0.00000000	          0.00000000	
          3.50000000	          0.00000000	         -0.00000000	         -0.00000000	          0.00000000	          0.00000000	          0.00000000	          0.00000000	          0.00000000	          0.00000000	         -0.00000000	         -0.00000000	         -0.00000000	          0.00000000	          0.00000000	          0.00000000	          0.00000000	          0.00000000	          0.00000000	
          3.55000000	         -0.00000000	         -0.00000000	         -0.00000000	          0.00000000	          0.00000000	          0.00000000	          0.00000000	          0.00000000	          0.00000000	         -0.00000000	         -0.00000000	          0.00000000	          0.00000000	          0.00000000	          0.00000000	          0.00000000	          0.00000000	          0.00000000	
          3.60000000	         -0.00000000	         -0.00000000	         -0.00000000	          0.00000000	          0.00000000	          0.00000000	          0.00000000	          0.00000000	          0.00000000	         -0.00000000	         -0.00000000	         -0.00000000	          0.00000000	          0.00000000	          0.00000000	          0.00000000	          0.00000000	          0.00000000	
          3.65000000	         -0.00000000	         -0.00000000	          0.00000000	          0.00000000	          0.00000000	          0.00000000	          0.00000000	          0.00000000	          0.00000000	         -0.00000000	          0.00000000	          0.00000000	          0.00000000	          0.00000000	          0.00000000	          0.00000000	          0.00000000	          0.00000000	
          3.70000000	         -0.00000000	          0.00000000	          0.00000000	          3.01055112	          0.00000000	          0.09627419	          0.00000000	          0.00000000	          0.00000000	         -0.00000000	          0.00000000	          0.00000000	          0.00000000	          0.00000000	          0.00000000	          0.00000000	          0.00000000	          0.00000000	
          3.75000000	         -0.00000004	          0.00000002	          0.00000002	          2.97487313	          0.00000000	          0.04955677	          0.00000000	         -0.00000000	          0.00000000	         -0.00000000	          0.00000000	          0.00000000	          0.00000000	          0.00000000	          0.00000000	          0.00000000	          0.00000000	          0.00000000	
          3.80000000	        -50.45437575	         42.90125516	         42.12453832	          2.93981811	          0.00000000	          0.03528635	          0.00000000	         -0.00057082	          0.00000000	         -0.00000000	          0.00000000	          0.00000000	          0.00000000	          0.00000000	          0.00000000	          0.00000000	          0.00000000	          0.00000000	
          3.85000000	        126.90341936	       2747.65291894	          2.97266601	          2.99228748	          0.00000000	          0.01949720	          0.00000000	          7.49115314	          0.00000000	          0.00000000	          0.00000000	          0.00000000	          2.75350258	          0.00000000	         -0.28424131	          0.00000000	         -0.00000000	          0.00000000	
          3.90000000	        140.83972450	        637.79984847	         46.15203908	          3.00446902	          0.00000000	          0.01760100	          0.00000000	          8.65027414	          0.00000000	          0.00000005	          0.00000007	          0.00000006	          2.73873819	          0.00000000	         -0.31235329	          0.00000000	         -0.00000000	          0.00000000	
          3.95000000	         65.28615088	        494.85458721	         26.05087020	          2.98436147	          0.00000000	          0.01369746	          0.00000000	          0.94296962	          0.00000000	          0.00000000	          0.00000000	          0.00000000	          2.73384926	          0.00000000	         -0.35517050	          0.00000000	          0.00000000	          0.00000000	
